<?xml version="1.0" standalone="no"?>
<!DOCTYPE svg PUBLIC "-//W3C//DTD SVG 20010904//EN"
 "http://www.w3.org/TR/2001/REC-SVG-20010904/DTD/svg10.dtd">
<svg version="1.0" xmlns="http://www.w3.org/2000/svg"
 width="582.000000pt" height="582.000000pt" viewBox="0 0 582.000000 582.000000"
 preserveAspectRatio="xMidYMid meet">
<metadata>
Created by potrace 1.14, written by Peter Selinger 2001-2017
</metadata>
<g transform="translate(0.000000,582.000000) scale(0.100000,-0.100000)"
fill="#000000" stroke="none">
<path d="M3302 5425 c4 -18 1 -20 -41 -17 -38 3 -48 0 -59 -17 -12 -20 -10
-21 38 -21 27 0 50 -4 50 -10 0 -9 -28 -15 -57 -11 -7 1 -13 -2 -13 -7 0 -15
67 -24 89 -12 33 17 72 30 67 22 -6 -10 10 -37 24 -38 31 -4 33 -7 10 -14 -14
-4 -36 -8 -49 -9 -23 -1 -24 0 -6 12 10 8 15 19 11 26 -6 9 -12 9 -24 -2 -10
-8 -42 -20 -72 -27 -30 -7 -76 -21 -102 -33 -26 -11 -55 -20 -63 -20 -18 0
-19 -9 -4 -24 14 -14 -6 -28 -23 -16 -24 15 -54 9 -65 -13 -9 -19 -7 -21 11
-17 12 3 17 1 11 -4 -5 -4 -15 -17 -21 -28 -6 -11 -17 -20 -25 -21 -32 -2 -39
-4 -38 -11 1 -5 1 -17 0 -28 -1 -16 -3 -17 -11 -5 -6 9 -5 17 3 23 7 5 -4 6
-28 3 l-40 -5 23 19 c30 25 28 40 -7 40 -16 0 -31 6 -35 15 -3 8 -12 15 -20
15 -9 0 -12 7 -9 20 3 11 12 20 21 20 8 0 12 3 9 7 -4 3 0 11 9 18 13 9 11 11
-15 9 -17 -1 -31 2 -31 6 0 5 -17 2 -37 -7 -21 -8 -60 -21 -88 -28 -43 -12
-47 -12 -31 1 11 8 28 14 38 14 10 0 18 7 18 15 0 13 -6 12 -40 -5 -21 -11
-43 -20 -47 -20 -4 1 6 8 22 17 45 23 64 43 58 59 -4 10 -9 12 -18 4 -6 -5
-24 -11 -38 -12 -15 -1 -29 -8 -32 -16 -4 -10 3 -12 28 -8 27 5 25 3 -18 -18
-31 -15 -52 -21 -56 -14 -4 7 -9 6 -13 -1 -4 -6 -18 -11 -32 -11 -13 0 -24 -4
-24 -10 0 -5 5 -10 11 -10 6 0 9 -6 6 -14 -3 -8 -1 -17 6 -20 7 -3 0 -5 -14
-3 -14 1 -37 -6 -52 -16 -14 -9 -31 -17 -36 -17 -5 0 -13 -4 -16 -10 -4 -7 3
-7 19 0 17 6 26 6 26 0 0 -6 -6 -10 -12 -10 -9 0 -8 -4 2 -10 8 -5 10 -10 4
-10 -7 0 -14 -9 -17 -20 -4 -16 -2 -18 13 -10 13 7 20 6 23 -3 3 -9 9 -9 26 1
18 10 21 10 21 -3 0 -8 -5 -15 -12 -15 -6 0 -26 -11 -43 -25 -18 -13 -44 -26
-59 -29 -14 -2 -31 -8 -37 -12 -8 -5 -9 -3 -4 5 6 10 3 11 -15 1 -12 -7 -25
-20 -27 -31 -3 -10 -9 -16 -14 -13 -5 3 -9 0 -9 -5 0 -6 -11 -11 -24 -11 -28
0 -41 -14 -30 -32 5 -8 10 -6 15 8 6 14 8 15 8 3 1 -8 -12 -30 -28 -47 -21
-24 -30 -47 -35 -90 -9 -72 -8 -109 4 -132 6 -10 10 -33 10 -50 0 -55 22 -28
55 66 32 92 64 149 108 196 14 15 23 29 21 31 -3 2 14 4 37 4 26 0 36 -3 27
-8 -11 -7 -11 -9 1 -9 9 0 11 -7 8 -21 -4 -14 -2 -19 8 -16 7 3 18 0 24 -6 10
-9 11 -5 6 18 -5 23 -4 26 4 15 6 -8 11 -32 11 -52 0 -21 5 -38 10 -38 6 0 10
-21 10 -46 0 -39 2 -45 14 -35 10 9 16 9 21 1 4 -6 13 -9 20 -6 7 2 18 -1 24
-7 6 -6 11 -8 11 -3 0 4 14 -2 30 -14 41 -29 38 -47 -7 -53 -74 -10 -118 -26
-141 -52 -16 -19 -20 -31 -13 -42 6 -11 4 -21 -5 -31 -8 -7 -12 -18 -9 -23 4
-5 1 -9 -4 -9 -6 0 -11 -6 -11 -12 0 -7 -15 -25 -34 -40 l-35 -28 2 26 c2 23
-3 28 -28 31 -16 2 -33 9 -36 15 -4 6 -12 7 -18 4 -6 -4 -11 -3 -11 3 0 5 5
11 11 13 17 6 -2 38 -27 44 -27 7 -84 -28 -84 -52 0 -16 26 -19 35 -4 4 6 11
8 16 4 5 -3 16 0 24 6 9 8 15 8 15 2 0 -6 3 -17 6 -26 5 -12 0 -16 -21 -16
-14 0 -24 -4 -21 -9 6 -9 -22 -21 -90 -40 -23 -6 -54 -21 -69 -32 -22 -18 -26
-27 -21 -53 4 -17 8 -42 10 -56 7 -52 9 -54 16 -25 7 25 8 22 7 -19 -2 -39 2
-51 20 -63 l22 -14 -6 77 -6 77 24 -6 c13 -4 27 -7 32 -7 10 0 9 -69 -2 -108
-9 -29 -8 -32 13 -32 28 0 58 32 127 137 48 73 62 87 65 65 0 -4 6 -20 13 -37
6 -16 17 -43 23 -58 6 -15 21 -35 33 -45 35 -28 32 -37 -14 -42 -59 -7 -68
-30 -11 -30 74 0 100 -29 59 -66 -17 -15 -37 -19 -92 -19 -71 0 -100 -16 -55
-29 17 -6 19 -9 8 -13 -33 -12 -39 -24 -28 -48 8 -18 8 -28 -1 -39 -9 -10 -9
-16 -1 -21 8 -5 6 -13 -6 -26 -13 -14 -15 -22 -6 -31 8 -8 5 -16 -14 -30 -27
-21 -33 -43 -9 -34 9 3 15 0 15 -9 0 -8 9 -15 19 -15 24 0 35 -26 14 -35 -25
-9 -1 -27 38 -28 21 0 49 9 74 26 22 14 56 32 75 38 19 7 43 21 54 31 14 12
23 15 32 7 9 -7 14 -4 19 11 11 34 -11 49 -73 49 -31 0 -68 2 -82 4 -14 3 -31
5 -39 6 -11 1 -11 4 -1 16 15 18 7 19 -19 3 -17 -10 -24 -8 -47 15 -26 26 -26
29 -11 45 15 14 17 14 17 1 0 -12 7 -15 28 -11 30 5 62 29 61 46 0 6 -3 6 -6
-1 -6 -18 -23 -16 -23 1 0 8 21 28 48 44 26 16 56 44 66 62 10 18 14 30 7 26
-12 -8 -41 16 -41 33 0 16 15 21 77 27 80 7 136 22 151 42 6 9 12 12 12 7 0
-4 9 0 20 10 11 10 20 24 20 32 0 7 7 16 15 19 8 4 15 19 15 34 0 34 6 38 77
55 36 9 51 9 44 2 -17 -17 -13 -44 8 -50 11 -2 24 0 30 6 8 8 11 4 11 -13 l0
-25 25 29 c22 25 25 27 25 9 0 -21 53 -87 63 -77 11 12 38 -45 49 -105 6 -33
15 -61 19 -61 4 0 11 -15 15 -32 4 -18 9 -27 11 -20 6 17 23 5 23 -17 0 -10
11 -23 25 -29 23 -11 25 -10 25 13 0 14 4 33 10 43 5 9 15 37 21 62 l11 44 18
-24 18 -23 8 24 c4 13 7 33 5 44 -2 11 0 17 5 13 4 -4 13 -3 19 2 15 12 29 -3
38 -40 4 -17 0 -31 -13 -45 -26 -28 -29 -64 -8 -78 26 -17 73 13 73 47 1 30
15 48 15 19 0 -12 8 -23 19 -26 24 -6 71 40 71 70 0 24 -41 78 -71 94 -17 9
-19 6 -19 -25 0 -28 6 -38 30 -53 17 -9 30 -23 30 -31 0 -19 -31 -11 -44 13
-6 11 -18 25 -26 31 -10 8 -14 34 -15 85 -1 63 2 77 19 92 11 10 29 16 40 13
10 -3 27 -1 37 5 30 16 88 -18 94 -55 9 -46 9 -68 0 -101 -11 -41 6 -24 21 22
7 21 10 49 7 63 -6 26 -46 70 -64 70 -5 0 -9 5 -9 10 0 18 36 10 58 -12 54
-58 54 -112 1 -223 -33 -68 -53 -96 -101 -138 -55 -48 -59 -54 -53 -85 4 -24
1 -40 -14 -61 -30 -42 -64 -140 -66 -188 0 -24 -6 -48 -13 -55 -18 -18 -14
-46 8 -53 23 -7 26 -21 8 -28 -7 -2 -10 -8 -6 -12 12 -13 58 12 58 31 0 15 2
15 25 0 23 -15 25 -15 41 10 10 14 28 30 42 35 13 5 26 18 29 29 3 11 9 20 14
20 5 0 9 9 9 20 0 11 4 20 8 20 5 0 19 23 32 50 13 28 27 50 30 50 4 0 23 20
43 45 21 28 37 41 40 33 3 -9 7 -6 12 7 5 11 16 31 25 45 10 14 20 45 23 69 3
24 11 49 18 55 8 7 10 8 6 0 -4 -6 0 -20 8 -30 14 -18 14 -18 15 4 0 13 3 21
8 19 4 -3 8 16 10 41 1 25 7 51 13 58 6 7 8 22 4 33 -12 38 8 47 21 10 12 -34
12 -34 13 -6 1 24 4 27 21 22 15 -5 22 0 29 18 9 23 14 25 50 20 22 -3 48 -2
58 2 17 7 17 8 -2 15 -11 5 -33 9 -50 10 -16 1 -24 4 -17 7 8 3 5 11 -10 25
-13 11 -18 17 -12 14 6 -3 20 1 30 9 19 14 19 14 -1 15 -13 0 -16 3 -8 8 8 5
11 31 8 79 -2 40 0 75 5 78 6 4 10 19 10 34 0 31 20 54 35 43 15 -11 45 -68
45 -86 0 -9 5 -16 10 -16 6 0 10 9 10 20 0 24 -27 80 -38 80 -5 0 -23 14 -41
32 -22 21 -29 34 -21 42 5 5 10 22 10 36 0 24 -10 39 -79 119 -12 13 -21 30
-21 38 0 7 -4 13 -10 13 -18 0 -11 29 10 40 29 16 24 27 -9 22 -23 -3 -30 1
-36 17 -3 12 -11 21 -16 21 -5 0 -9 7 -9 15 0 8 -15 32 -34 52 -18 21 -36 52
-40 68 -10 43 -33 74 -62 85 -13 5 -29 21 -34 35 -5 14 -15 25 -21 25 -7 0
-10 3 -6 6 3 4 -5 21 -19 40 -18 23 -43 39 -85 53 -32 11 -59 18 -59 16 0 -1
-19 15 -42 36 -30 27 -44 35 -46 25 -2 -8 -10 -17 -18 -20 -12 -5 -12 -2 -3
15 6 11 8 23 5 27 -3 3 -6 0 -6 -6 0 -7 -11 -9 -30 -5 -23 4 -35 1 -46 -13 -9
-11 -13 -14 -10 -8 9 18 -21 37 -48 30 -20 -5 -28 -1 -37 16 -7 13 -11 25 -10
26 2 2 -1 7 -5 10 -4 4 -5 -2 -2 -13z m32 -67 c-3 -4 -12 -8 -20 -8 -8 0 -13
4 -10 8 3 5 12 9 20 9 8 0 13 -4 10 -9z m125 -4 c4 3 8 -1 8 -8 0 -8 -6 -12
-14 -9 -7 3 -13 13 -12 22 0 10 2 11 6 3 2 -6 8 -10 12 -8z m66 -14 c-3 -5
-16 -15 -28 -21 -21 -10 -21 -9 2 10 25 23 36 27 26 11z m-58 -26 c-3 -3 -12
-4 -19 -1 -8 3 -5 6 6 6 11 1 17 -2 13 -5z m73 -24 c0 -5 -5 -10 -11 -10 -5 0
-7 5 -4 10 3 6 8 10 11 10 2 0 4 -4 4 -10z m-777 -67 c-7 -2 -19 -2 -25 0 -7
3 -2 5 12 5 14 0 19 -2 13 -5z m-203 -24 c0 -6 -4 -7 -10 -4 -5 3 -10 11 -10
16 0 6 5 7 10 4 6 -3 10 -11 10 -16z m-50 -74 c-7 -9 -15 -13 -19 -10 -3 3 1
10 9 15 21 14 24 12 10 -5z m350 -25 c0 -5 -5 -10 -11 -10 -5 0 -7 5 -4 10 3
6 8 10 11 10 2 0 4 -4 4 -10z m-212 -20 c-7 -10 -14 -17 -17 -15 -4 4 18 35
25 35 2 0 -1 -9 -8 -20z m1227 -40 c7 -22 6 -23 -9 -11 -9 7 -16 23 -16 34 0
26 15 12 25 -23z m-1245 0 c0 -5 -4 -10 -10 -10 -5 0 -10 5 -10 10 0 6 5 10
10 10 6 0 10 -4 10 -10z m-135 -10 c-3 -5 -12 -10 -18 -10 -7 0 -6 4 3 10 19
12 23 12 15 0z m119 -195 c3 -8 1 -15 -3 -15 -5 0 -11 7 -15 15 -3 8 -1 15 3
15 5 0 11 -7 15 -15z m1421 -95 c8 -13 -1 -13 -26 0 -10 6 -19 15 -19 21 0 11
35 -5 45 -21z m38 -111 c17 -22 23 -49 10 -49 -5 1 -30 21 -57 45 l-49 44 39
-9 c22 -5 47 -19 57 -31z m-1356 9 c-3 -8 -6 -5 -6 6 -1 11 2 17 5 13 3 -3 4
-12 1 -19z m86 -9 c11 -7 30 -20 41 -30 11 -11 24 -19 28 -19 5 0 8 -8 6 -17
-2 -10 2 -18 9 -18 13 0 42 -34 43 -49 0 -5 -7 -3 -15 4 -12 10 -15 10 -15 -4
0 -9 -5 -16 -11 -16 -5 0 -7 5 -4 10 3 6 0 13 -9 16 -8 3 -12 12 -10 19 6 15
-43 68 -56 60 -5 -3 -14 5 -21 17 -7 13 -17 26 -23 30 -18 13 13 9 37 -3z
m-127 -120 c3 -5 0 -9 -5 -9 -6 0 -13 0 -16 0 -3 0 -22 -9 -42 -20 -63 -34
-100 -22 -61 19 12 14 28 21 39 18 11 -3 19 -2 19 2 0 10 59 1 66 -10z m104
-28 c0 -5 6 -9 13 -8 32 1 57 -4 57 -11 0 -10 -57 -4 -85 8 -11 5 -36 11 -55
13 -25 3 -21 4 18 5 28 1 52 -2 52 -7z m145 -21 l20 -9 -20 0 c-11 0 -27 4
-35 9 -13 9 -13 10 0 9 8 0 24 -4 35 -9z m1105 -43 c0 -16 -38 -40 -50 -32
-14 9 -12 32 3 38 23 10 47 7 47 -6z m-1772 -44 c-10 -2 -26 -2 -35 0 -10 3
-2 5 17 5 19 0 27 -2 18 -5z m-58 -42 c0 -35 -2 -39 -21 -34 -15 4 -19 11 -15
27 3 11 6 27 6 34 0 6 7 12 15 12 11 0 15 -11 15 -39z m239 -555 c-20 -20 -52
-27 -69 -16 -19 12 -8 22 31 26 18 2 35 6 37 9 3 3 8 3 11 0 2 -3 -2 -12 -10
-19z m-9 -46 c0 -5 -5 -10 -11 -10 -5 0 -7 5 -4 10 3 6 8 10 11 10 2 0 4 -4 4
-10z"/>
<path d="M3420 5430 c8 -5 20 -10 25 -10 6 0 3 5 -5 10 -8 5 -19 10 -25 10 -5
0 -3 -5 5 -10z"/>
<path d="M3180 5410 c0 -5 5 -10 11 -10 5 0 7 5 4 10 -3 6 -8 10 -11 10 -2 0
-4 -4 -4 -10z"/>
<path d="M3019 5383 c-13 -16 -12 -17 4 -4 9 7 17 15 17 17 0 8 -8 3 -21 -13z"/>
<path d="M2650 5373 c0 -14 -2 -15 -9 -5 -6 10 -10 10 -21 -3 -7 -8 -10 -18
-6 -22 3 -3 6 -2 6 4 0 6 11 9 24 8 19 -2 23 1 19 16 -7 24 -13 25 -13 2z"/>
<path d="M3055 5360 c-3 -5 3 -10 15 -10 12 0 18 5 15 10 -3 6 -10 10 -15 10
-5 0 -12 -4 -15 -10z"/>
<path d="M3015 5330 c-3 -6 1 -7 9 -4 18 7 21 14 7 14 -6 0 -13 -4 -16 -10z"/>
<path d="M3095 5320 c-4 -6 -13 -9 -20 -7 -7 3 -30 -6 -51 -19 l-39 -24 45 6
c41 6 90 38 77 50 -3 3 -8 0 -12 -6z"/>
<path d="M3121 5314 c0 -11 3 -14 6 -6 3 7 2 16 -1 19 -3 4 -6 -2 -5 -13z"/>
<path d="M2590 5290 c0 -5 5 -10 10 -10 6 0 10 5 10 10 0 6 -4 10 -10 10 -5 0
-10 -4 -10 -10z"/>
<path d="M2737 5283 c-24 -23 9 -31 39 -8 18 14 18 14 -7 15 -14 0 -29 -3 -32
-7z"/>
<path d="M3000 5253 c-24 -13 -23 -13 15 -10 22 2 49 8 59 14 28 16 -44 12
-74 -4z"/>
<path d="M2880 5230 c-8 -5 -12 -11 -9 -14 3 -3 14 1 25 9 21 16 8 20 -16 5z"/>
<path d="M2930 5230 c-9 -6 -10 -10 -3 -10 6 0 15 5 18 10 8 12 4 12 -15 0z"/>
<path d="M3045 5230 c-3 -5 0 -7 8 -4 8 3 18 1 22 -5 3 -6 11 -11 18 -11 6 0
2 7 -9 15 -23 17 -31 18 -39 5z"/>
<path d="M2990 5150 c0 -5 5 -10 10 -10 6 0 10 5 10 10 0 6 -4 10 -10 10 -5 0
-10 -4 -10 -10z"/>
<path d="M2269 4963 c-13 -15 -12 -15 9 -4 23 12 28 21 13 21 -5 0 -15 -7 -22
-17z"/>
<path d="M2521 4740 c0 -8 4 -22 9 -30 12 -18 12 -2 0 25 -6 13 -9 15 -9 5z"/>
<path d="M2415 4690 c-18 -20 -16 -38 3 -26 8 5 24 46 18 46 -2 0 -11 -9 -21
-20z"/>
<path d="M3535 4299 c-5 -16 0 -28 20 -46 28 -27 42 -25 30 4 -5 10 -7 22 -6
27 2 10 -19 36 -30 36 -4 0 -11 -10 -14 -21z"/>
<path d="M3633 4088 c-16 -24 -31 -45 -36 -46 -4 -2 -13 -9 -20 -15 -20 -19
-55 -37 -71 -37 -18 0 -65 -39 -48 -40 7 0 39 14 72 30 33 17 60 27 60 24 0
-12 39 38 45 57 4 11 11 19 16 19 5 0 9 9 9 19 0 11 6 22 13 24 9 4 9 6 0 6
-7 1 -25 -18 -40 -41z"/>
<path d="M3392 3940 c0 -14 2 -19 5 -12 2 6 2 18 0 25 -3 6 -5 1 -5 -13z"/>
<path d="M3025 3480 c-3 -5 -1 -10 4 -10 6 0 11 5 11 10 0 6 -2 10 -4 10 -3 0
-8 -4 -11 -10z"/>
<path d="M2757 3404 c-5 -6 -111 -12 -217 -14 -14 0 -38 -11 -55 -24 l-29 -23
29 -1 c71 -1 222 -36 276 -63 23 -11 41 -7 73 17 22 16 26 25 21 46 -13 50
-72 87 -98 62z"/>
<path d="M2456 3381 c-4 -7 -5 -15 -2 -18 9 -9 19 4 14 18 -4 11 -6 11 -12 0z"/>
<path d="M3514 3203 c0 -49 -3 -115 -5 -147 -2 -41 0 -61 9 -64 7 -2 12 -12
12 -22 0 -37 -226 -125 -380 -148 -195 -30 -426 11 -535 94 -34 26 -51 31 -39
13 4 -7 1 -10 -7 -7 -26 9 -23 109 7 209 10 36 -25 27 -50 -12 -15 -21 -31
-39 -36 -39 -13 0 -160 -148 -160 -160 0 -6 -4 -10 -9 -10 -5 0 -11 -9 -14
-21 -3 -12 -10 -18 -17 -14 -7 5 -9 -2 -5 -22 5 -21 4 -24 -4 -13 -9 13 -11
11 -11 -6 0 -12 -7 -24 -15 -28 -8 -3 -15 -10 -15 -16 0 -6 -11 -21 -23 -33
-13 -12 -27 -34 -31 -49 -3 -16 -11 -28 -16 -28 -6 0 -10 -7 -10 -15 0 -8 -4
-15 -8 -15 -14 0 2 80 26 134 27 59 28 76 5 75 -11 0 -13 -3 -5 -6 6 -2 12 -9
12 -15 0 -6 -7 -7 -16 -4 -13 5 -15 2 -11 -14 6 -24 -8 -27 -22 -3 -14 26 4
63 50 104 29 26 37 38 27 42 -14 5 -62 -12 -98 -34 -8 -5 -24 -13 -36 -18 -22
-10 -80 -65 -132 -125 -25 -29 -30 -42 -21 -52 12 -15 3 -38 -12 -29 -5 4 -12
-7 -15 -24 -4 -17 -11 -31 -15 -31 -5 0 -7 -11 -3 -25 4 -17 2 -27 -8 -30 -9
-4 -13 -16 -10 -34 2 -16 -4 -43 -13 -60 -11 -22 -14 -46 -11 -79 6 -46 6 -47
-6 -12 l-11 35 -8 -30 c-4 -16 -20 -84 -34 -150 -32 -142 -109 -389 -133 -425
-48 -73 -58 -111 -60 -245 -2 -107 1 -139 18 -190 35 -106 102 -345 107 -385
8 -55 -44 -281 -83 -368 -18 -40 -36 -90 -40 -110 -10 -55 -49 -128 -104 -194
-46 -54 -65 -57 -170 -20 -8 2 -35 5 -59 6 -33 1 -48 7 -59 24 -8 13 -25 22
-40 22 -25 0 -82 51 -129 115 l-22 30 -2 -105 c-3 -91 -3 -95 -6 -33 -3 53 -8
73 -17 73 -13 0 -21 -12 -25 -32 0 -5 -10 -17 -21 -28 -11 -11 -20 -29 -20
-40 0 -11 -4 -20 -9 -20 -14 0 -22 -77 -15 -146 l7 -64 487 0 487 0 -2 23 c-7
60 -17 126 -25 162 -5 22 -11 56 -14 75 -3 19 -7 46 -10 60 -13 65 -19 153
-23 365 -8 373 -8 1015 -1 1085 4 36 15 133 24 215 9 83 17 175 17 205 -1 43
1 49 7 25 5 -21 9 -26 14 -15 7 16 74 20 112 7 26 -9 22 -42 -6 -57 -15 -8
-18 -31 -25 -152 -3 -79 -10 -172 -15 -208 -27 -220 -40 -342 -49 -475 -11
-164 -6 -482 8 -530 5 -16 12 -62 15 -102 3 -39 17 -143 30 -230 37 -239 46
-314 46 -363 0 -25 3 -55 6 -67 l6 -23 734 0 c580 0 734 3 734 13 1 6 7 50 14
97 29 186 67 419 81 500 17 103 40 247 55 355 15 101 55 323 79 440 11 50 31
155 46 235 38 209 74 390 83 424 12 43 28 42 51 -3 12 -22 25 -42 31 -46 5 -3
10 -25 10 -48 0 -23 1 -53 2 -67 1 -26 -10 -119 -17 -129 -1 -3 -6 -30 -10
-60 -7 -53 -9 -70 -17 -101 -2 -12 8 -14 62 -12 43 2 71 -1 81 -10 19 -15 54
-261 38 -266 -5 -2 -9 -9 -9 -16 0 -7 -16 -30 -36 -52 l-36 -39 33 47 c36 53
34 70 -10 93 -31 15 -31 15 -31 -10 0 -29 -8 -31 -36 -10 -28 21 -43 19 -37
-6 4 -15 11 -19 27 -15 12 3 26 2 32 -2 16 -10 27 -62 13 -62 -6 0 -13 9 -16
20 -6 24 -13 25 -60 5 -19 -8 -46 -15 -60 -15 -20 0 -24 -4 -21 -22 2 -15 11
-24 27 -26 17 -3 21 0 16 10 -5 7 -5 10 0 6 4 -4 17 -2 29 4 18 10 19 9 9 -4
-7 -8 -10 -18 -6 -22 4 -4 0 -4 -10 0 -16 6 -25 -10 -9 -19 4 -2 1 -2 -6 0 -7
1 -23 -2 -35 -9 -19 -10 -20 -9 -9 4 10 13 10 17 -3 22 -8 3 -16 1 -16 -4 -5
-39 -1 -46 33 -63 37 -18 38 -18 70 4 18 13 43 34 56 46 14 15 22 19 22 10 0
-15 -40 -55 -82 -81 -25 -16 -29 -16 -66 2 l-40 19 -10 -22 c-6 -13 -8 -26 -5
-29 4 -3 64 -6 134 -6 147 0 165 -8 156 -67 -3 -18 -2 -35 3 -38 15 -9 18 -65
3 -65 -8 0 -16 8 -19 18 -17 56 -44 68 -44 20 l0 -33 -79 -2 -79 -1 -6 30 c-3
17 -6 54 -7 82 0 28 -3 45 -6 39 -2 -7 -16 -13 -30 -13 -25 0 -26 -1 -19 -52
3 -29 9 -63 12 -76 5 -16 2 -22 -11 -22 -9 0 -19 9 -22 20 -3 11 -10 20 -15
20 -5 0 -6 -5 -3 -10 3 -5 3 -10 -2 -10 -4 0 -8 -12 -9 -27 0 -16 -4 -46 -8
-68 -4 -22 -9 -58 -11 -80 -2 -22 -6 -60 -10 -85 -4 -25 -8 -70 -11 -100 -4
-63 -13 -138 -19 -160 -2 -8 -6 -37 -10 -65 -3 -27 -10 -66 -15 -85 -5 -19
-11 -52 -14 -73 -4 -21 -10 -46 -15 -55 -5 -9 -7 -25 -6 -34 2 -10 0 -18 -3
-18 -4 0 -8 -16 -9 -35 l-3 -35 489 0 489 0 6 23 c3 12 6 54 6 92 1 39 5 104
11 145 9 76 38 461 39 535 l1 40 14 -33 c30 -68 111 -180 182 -252 52 -51 86
-96 110 -145 19 -38 61 -106 92 -150 37 -51 62 -98 70 -130 6 -27 19 -67 29
-87 l17 -38 338 0 337 0 0 233 0 232 -43 100 c-52 119 -86 188 -138 275 -44
76 -101 218 -124 309 -20 78 -69 198 -128 311 -181 347 -204 388 -341 592 -49
74 -117 162 -155 198 -36 36 -77 80 -91 98 -14 18 -35 44 -47 57 -25 26 -30
41 -11 29 7 -4 8 -3 4 4 -4 6 -23 14 -44 18 -20 4 -62 19 -92 34 -48 24 -136
52 -276 89 -37 10 -42 15 -47 49 -4 20 -16 45 -27 55 -19 16 -22 16 -36 2 -9
-8 -19 -15 -24 -15 -5 0 -18 -9 -29 -21 l-19 -21 -7 24 c-4 12 -13 26 -19 30
-8 6 -7 8 2 8 6 0 12 5 12 10 0 6 -3 9 -7 8 -17 -3 -63 22 -63 36 0 7 -8 16
-19 19 -10 2 -21 17 -25 32 -9 34 -35 75 -49 75 -5 0 -2 -9 7 -19 10 -11 16
-26 13 -33 -4 -10 -6 -10 -6 0 -1 8 -17 12 -45 12 -54 0 -69 -16 -24 -25 28
-7 30 -8 12 -18 -33 -18 -40 -31 -38 -67 1 -19 -3 -41 -8 -48 -8 -9 -6 -16 8
-27 11 -8 14 -14 7 -15 -7 0 -13 -9 -13 -19 0 -11 -4 -23 -10 -26 -6 -4 -10
33 -10 104 0 72 -4 111 -11 111 -5 0 -8 4 -5 9 11 18 -35 43 -103 57 -8 1 -17
7 -20 12 -18 28 -49 68 -67 88 -12 13 -19 26 -16 29 4 3 1 9 -5 13 -6 4 -22
24 -36 45 -25 37 -83 107 -89 107 -2 0 -3 -39 -4 -87z m1143 -649 c2 -5 -9
-10 -24 -11 -16 0 -20 1 -10 4 21 5 23 23 2 23 -8 0 -15 5 -15 11 0 13 42 -11
47 -27z m53 -9 c10 -12 10 -15 -4 -15 -9 0 -16 7 -16 15 0 8 2 15 4 15 2 0 9
-7 16 -15z m-1597 -92 c-7 -2 -19 -2 -25 0 -7 3 -2 5 12 5 14 0 19 -2 13 -5z
m856 -21 c13 -25 46 -197 76 -402 15 -96 35 -211 46 -255 10 -44 19 -90 19
-101 0 -12 10 -28 21 -36 15 -9 22 -26 24 -54 4 -50 40 -276 65 -409 30 -153
50 -335 56 -500 2 -82 7 -157 10 -167 6 -19 -11 -34 -21 -18 -4 6 -11 35 -15
63 -5 29 -13 72 -18 97 -5 25 -12 77 -16 115 -14 172 -28 271 -42 286 -8 8
-14 20 -14 25 0 5 -9 20 -20 34 l-20 25 0 -47 c0 -32 -4 -48 -13 -48 -8 0 -17
29 -24 87 -7 48 -10 89 -8 91 11 11 37 -11 65 -55 34 -54 34 -53 19 33 -9 53
-13 61 -30 57 -13 -4 -19 0 -19 12 0 12 5 15 22 9 20 -6 21 -5 6 10 -22 21
-27 20 -38 -9 -12 -30 -24 -32 -43 -5 -12 18 -16 18 -26 6 -10 -11 -8 -15 6
-19 14 -4 12 -5 -6 -6 -20 -1 -22 2 -17 25 5 18 3 24 -5 18 -8 -4 -9 -3 -5 5
4 7 15 11 24 9 10 -1 23 1 30 6 7 4 18 3 25 -3 8 -6 18 -6 27 -1 8 5 18 6 23
3 22 -13 -22 218 -46 242 -17 16 -32 69 -24 83 3 4 -3 43 -14 87 -10 44 -32
174 -49 289 -17 114 -37 238 -45 275 -20 99 -22 161 -5 161 5 0 14 -8 19 -18z
m-739 -112 c0 -5 -7 -10 -15 -10 -8 0 -15 5 -15 10 0 6 7 10 15 10 8 0 15 -4
15 -10z m-24 -29 c-4 -5 12 -12 34 -16 22 -4 40 -11 40 -16 0 -5 6 -9 14 -9
12 0 162 -150 154 -154 -2 -1 -15 -7 -30 -13 -25 -11 -29 -9 -69 44 -31 39
-58 62 -95 79 -67 31 -78 30 -72 -1 6 -29 -11 -34 -19 -6 -6 22 -57 35 -113
27 -98 -13 -160 -26 -195 -40 -20 -9 -45 -16 -54 -16 -50 0 -190 -97 -175
-121 4 -7 3 -10 -4 -5 -10 6 -55 -44 -80 -89 -6 -11 -12 -14 -12 -8 0 7 17 39
37 70 20 32 35 60 32 62 -2 2 7 8 21 13 20 7 22 11 10 19 -13 9 -12 10 1 6 10
-3 26 4 38 17 23 24 71 47 186 90 94 34 171 48 251 44 55 -2 69 0 78 15 6 9
15 17 19 17 5 0 6 -4 3 -9z m-6 -132 c0 -6 -9 -8 -22 -4 -20 5 -21 5 -5 -5 10
-7 14 -16 10 -23 -4 -7 -8 -18 -10 -26 -3 -25 -20 -34 -40 -22 -16 11 -16 11
4 6 21 -6 22 -4 17 24 -4 17 -4 37 -1 46 7 17 47 21 47 4z m-160 -19 c0 -5 -5
-10 -11 -10 -5 0 -7 5 -4 10 3 6 8 10 11 10 2 0 4 -4 4 -10z m190 -44 c0 -2
-7 -7 -16 -10 -8 -3 -12 -2 -9 4 6 10 25 14 25 6z m-927 -27 c95 -24 130 -51
130 -100 0 -19 -7 -37 -17 -45 -17 -12 -17 -14 -2 -36 21 -30 20 -71 -3 -92
-16 -15 -34 -16 -140 -10 l-122 7 5 26 c3 14 8 67 11 116 9 134 14 155 36 155
11 0 57 -9 102 -21z m414 7 c8 -6 4 -111 -7 -166 -20 -110 -42 -129 -171 -146
-34 -4 -49 -2 -55 8 -5 7 -9 74 -10 148 -1 127 3 149 27 150 14 0 15 -87 3
-149 -15 -72 -7 -101 29 -101 35 0 67 11 61 21 -3 5 1 7 8 4 27 -10 42 13 46
73 4 52 2 61 -14 65 -15 4 -14 5 5 6 22 1 23 4 19 46 -3 24 -3 47 0 49 4 5 51
-2 59 -8z m570 -16 c37 -16 83 -68 83 -93 0 -23 -34 -17 -61 11 -35 36 -91 51
-115 31 -8 -7 -27 -32 -41 -56 -50 -86 -3 -156 102 -151 42 3 50 6 53 24 3 18
-4 23 -35 31 -39 9 -50 27 -34 52 8 12 17 11 63 -5 l53 -19 3 -52 c2 -43 -1
-56 -19 -74 -20 -20 -28 -21 -93 -15 -100 8 -115 14 -139 53 l-22 35 18 102
c10 55 19 107 19 114 1 8 9 11 20 9 10 -3 31 1 46 9 35 18 48 17 99 -6z m233
13 c0 -5 -11 -9 -25 -9 -14 -1 -22 2 -19 7 6 11 44 12 44 2z m-81 -6 c-2 -1
-13 -9 -24 -17 -19 -14 -19 -14 -6 3 7 9 18 17 24 17 6 0 8 -1 6 -3z m-583
-15 c5 -4 32 -43 59 -87 27 -44 52 -82 55 -85 4 -3 10 -14 14 -25 8 -19 9 -19
18 5 5 14 8 48 7 75 -3 79 8 115 37 115 29 0 29 -8 12 -192 -12 -129 -18 -143
-55 -131 -7 3 -45 56 -84 119 -39 63 -72 114 -74 114 -1 0 -3 -21 -4 -47 -4
-112 -15 -168 -35 -171 -33 -7 -37 10 -26 134 15 170 18 184 44 184 11 0 26
-4 32 -8z m-256 -76 c0 -3 -4 -8 -10 -11 -5 -3 -10 -1 -10 4 0 6 5 11 10 11 6
0 10 -2 10 -4z m884 -81 c-1 -6 -7 -52 -14 -103 -12 -87 -14 -92 -34 -86 -26
8 -23 5 -27 29 -3 17 15 123 27 163 4 15 50 12 48 -3z m-313 -32 c13 -16 12
-17 -3 -4 -17 13 -22 21 -14 21 2 0 10 -8 17 -17z m-29 -113 c4 0 3 -9 -4 -19
-7 -11 -17 -17 -23 -14 -5 3 -4 0 4 -8 10 -11 15 -11 18 -1 9 23 25 12 21 -13
-3 -14 -1 -25 3 -25 5 0 9 9 9 20 0 27 39 27 74 -1 31 -25 35 -76 9 -107 -24
-27 -83 -19 -91 12 -6 18 -7 17 -12 -9 -3 -16 -11 -29 -18 -27 -14 2 -16 -15
-3 -20 6 -2 6 -18 2 -38 l-8 -35 -7 30 c-4 17 -9 35 -11 40 -1 6 4 22 12 38 8
16 9 27 3 27 -5 0 -10 -7 -10 -15 0 -8 -4 -15 -9 -15 -5 0 -7 25 -4 58 3 42 2
53 -6 42 -6 -8 -11 -34 -11 -56 0 -47 -17 -67 -52 -62 -21 3 -23 8 -23 66 0
74 18 84 19 10 1 -28 6 -53 12 -55 14 -5 38 52 29 66 -10 17 5 51 22 51 13 0
14 9 9 51 l-7 51 22 -21 c13 -12 26 -21 31 -21z m-65 -12 c-3 -8 -6 -5 -6 6
-1 11 2 17 5 13 3 -3 4 -12 1 -19z m-2 -28 c-3 -5 -11 -10 -16 -10 -6 0 -7 5
-4 10 3 6 11 10 16 10 6 0 7 -4 4 -10z m-254 -10 c10 0 19 -5 19 -11 0 -7 -10
-9 -25 -7 -30 6 -35 -18 -5 -27 26 -8 26 -29 0 -22 -17 4 -22 0 -27 -24 -8
-40 -23 -37 -23 5 0 59 11 98 27 92 8 -4 23 -6 34 -6z m-244 -42 c-3 -7 -5 -2
-5 12 0 14 2 19 5 13 2 -7 2 -19 0 -25z m385 15 c24 -21 24 -81 1 -99 -27 -20
-80 -17 -103 6 -24 24 -26 57 -4 88 19 27 78 30 106 5z m398 -72 c10 -33 14
-63 9 -66 -4 -3 -11 6 -15 20 -7 30 -50 35 -70 8 -23 -32 -26 -6 -3 33 23 43
50 76 56 70 2 -2 13 -31 23 -65z m85 59 c20 -9 20 -9 -1 -15 -16 -5 -23 -19
-31 -63 l-10 -57 -2 56 c-1 40 -5 59 -16 63 -8 3 -15 10 -15 16 0 12 47 12 75
0z m-872 -50 c-3 -11 -9 -17 -14 -15 -10 7 -1 35 11 35 5 0 6 -9 3 -20z m27
-30 c0 -5 -5 -10 -11 -10 -5 0 -7 5 -4 10 3 6 8 10 11 10 2 0 4 -4 4 -10z
m-30 -44 c8 -11 10 -17 3 -13 -6 4 -14 1 -16 -5 -3 -7 -6 0 -6 16 -1 16 0 27
2 25 1 -2 9 -13 17 -23z m26 -53 c-3 -3 -13 -2 -23 2 -17 7 -17 8 2 15 19 7
34 -5 21 -17z m-429 -25 c-3 -8 -6 -5 -6 6 -1 11 2 17 5 13 3 -3 4 -12 1 -19z
m966 -36 c-5 -4 -13 -14 -16 -22 -3 -8 -5 1 -5 22 1 32 3 35 16 21 10 -9 11
-17 5 -21z m-823 18 c0 -5 -4 -10 -10 -10 -5 0 -10 5 -10 10 0 6 5 10 10 10 6
0 10 -4 10 -10z m820 -70 c-8 -5 -19 -10 -25 -10 -5 0 -3 5 5 10 8 5 20 10 25
10 6 0 3 -5 -5 -10z m-370 -30 c0 -5 -5 -10 -11 -10 -5 0 -7 5 -4 10 3 6 8 10
11 10 2 0 4 -4 4 -10z m357 -22 c-3 -8 -6 -5 -6 6 -1 11 2 17 5 13 3 -3 4 -12
1 -19z m-787 -88 c0 -5 -5 -10 -11 -10 -5 0 -7 5 -4 10 3 6 8 10 11 10 2 0 4
-4 4 -10z m410 -40 c0 -5 -4 -10 -10 -10 -5 0 -10 5 -10 10 0 6 5 10 10 10 6
0 10 -4 10 -10z m18 -89 c-7 -11 -16 -17 -20 -14 -10 5 10 33 23 33 5 0 4 -9
-3 -19z m52 -212 c0 -5 -4 -9 -10 -9 -5 0 -10 7 -10 16 0 8 5 12 10 9 6 -3 10
-10 10 -16z m18 -121 c-2 -6 -10 -13 -16 -14 -7 -1 -8 0 -2 3 5 2 8 9 4 14 -3
5 0 9 6 9 7 0 10 -5 8 -12z m-451 -144 c-3 -3 -12 -4 -19 -1 -8 3 -5 6 6 6 11
1 17 -2 13 -5z"/>
<path d="M4062 1286 c1 -10 8 -17 13 -17 15 1 12 24 -3 29 -9 3 -13 -2 -10
-12z"/>
<path d="M2227 2009 c-8 -30 -3 -36 41 -49 54 -15 102 -13 108 5 9 24 -12 42
-59 49 -23 4 -52 9 -63 12 -16 4 -23 0 -27 -17z"/>
<path d="M2216 1905 c-6 -16 -8 -55 -3 -55 1 -1 20 -4 42 -7 22 -4 58 -7 80
-8 34 0 40 3 37 20 -5 27 -30 42 -81 50 -24 4 -49 9 -56 11 -7 3 -15 -2 -19
-11z"/>
<path d="M3130 2018 c-12 -22 -12 -22 6 -6 10 10 15 20 12 24 -4 3 -12 -5 -18
-18z"/>
<path d="M3196 1658 c-13 -49 -8 -65 22 -64 23 1 27 6 30 35 5 49 -40 73 -52
29z"/>
<path d="M3150 1653 c0 -5 5 -15 10 -23 8 -12 10 -11 10 8 0 12 -4 22 -10 22
-5 0 -10 -3 -10 -7z"/>
<path d="M3111 1624 c0 -11 3 -14 6 -6 3 7 2 16 -1 19 -3 4 -6 -2 -5 -13z"/>
<path d="M2877 1663 c-9 -8 -9 -46 -1 -67 7 -18 36 -21 65 -6 21 12 25 50 7
68 -13 13 -60 16 -71 5z"/>
<path d="M3320 1615 c0 -8 4 -15 10 -15 5 0 7 7 4 15 -4 8 -8 15 -10 15 -2 0
-4 -7 -4 -15z"/>
<path d="M3850 2970 c0 -5 5 -10 11 -10 5 0 7 5 4 10 -3 6 -8 10 -11 10 -2 0
-4 -4 -4 -10z"/>
<path d="M1878 2735 c-3 -13 -2 -22 2 -20 11 7 20 45 10 45 -4 0 -10 -11 -12
-25z"/>
<path d="M1830 2720 c-9 -6 -10 -10 -3 -10 6 0 15 5 18 10 8 12 4 12 -15 0z"/>
<path d="M1748 2667 c-34 -12 -55 -25 -51 -31 3 -6 3 -8 -1 -4 -9 7 -66 -10
-66 -20 0 -4 11 -12 24 -18 17 -8 34 -7 67 2 24 7 45 11 48 9 2 -3 -1 -5 -7
-5 -6 0 -24 -11 -40 -25 -16 -13 -32 -22 -36 -18 -3 3 -6 0 -6 -9 0 -10 -9
-14 -35 -12 -19 2 -35 -1 -35 -6 0 -16 -27 -11 -34 6 -9 24 -38 -3 -31 -27 4
-11 2 -19 -4 -19 -6 0 -9 -13 -7 -30 3 -24 0 -30 -16 -30 -11 0 -16 5 -13 10
3 6 -3 10 -15 10 -12 0 -19 -4 -15 -9 3 -6 -4 -15 -15 -21 -11 -6 -20 -7 -20
-3 -1 12 -24 -30 -27 -47 -1 -8 -7 -16 -13 -18 -5 -2 -7 -8 -4 -14 4 -6 2 -13
-4 -17 -9 -6 -19 -54 -23 -116 -1 -20 -4 -13 -8 20 l-6 50 -37 -65 c-48 -84
-96 -270 -107 -416 l-8 -109 -2 80 -2 80 -25 -55 c-19 -42 -144 -484 -144
-510 0 -3 14 -5 31 -6 45 -2 59 -22 71 -102 l10 -72 37 0 c20 0 41 4 48 8 7 4
14 46 18 97 20 295 79 485 150 485 23 0 54 46 62 95 6 38 14 53 34 64 35 20
84 0 94 -37 5 -20 8 -23 16 -11 5 7 9 23 9 33 0 10 18 69 40 130 22 61 58 191
79 289 22 98 49 197 60 220 12 24 21 52 21 62 0 10 9 28 20 39 21 24 39 106
22 106 -6 0 -19 -11 -30 -25 -26 -32 -39 -33 -18 0 27 42 26 42 -56 12z m-228
-266 c0 -10 -6 -24 -14 -31 -8 -6 -17 -21 -19 -33 -2 -12 -3 1 -1 28 2 28 3
51 4 53 0 1 7 2 15 2 8 0 15 -8 15 -19z"/>
<path d="M1575 2581 c-3 -5 -1 -12 5 -16 5 -3 10 1 10 9 0 18 -6 21 -15 7z"/>
<path d="M1913 2323 c9 -2 23 -2 30 0 6 3 -1 5 -18 5 -16 0 -22 -2 -12 -5z"/>
<path d="M1903 2230 c0 -25 2 -35 4 -22 2 12 2 32 0 45 -2 12 -4 2 -4 -23z"/>
<path d="M3830 2215 c0 -5 5 -17 10 -25 5 -8 10 -10 10 -5 0 6 -5 17 -10 25
-5 8 -10 11 -10 5z"/>
<path d="M3874 1703 c-6 -5 -14 -25 -18 -45 -6 -36 -5 -38 41 -64 26 -15 64
-40 84 -56 20 -15 40 -28 43 -28 4 0 4 26 1 58 -4 31 -7 75 -9 97 l-2 40 -64
3 c-36 1 -70 -1 -76 -5z m95 -40 c0 -5 -5 -17 -10 -28 -9 -19 -9 -19 -5 2 2
12 -1 24 -8 27 -6 2 -3 5 7 5 9 1 17 -2 16 -6z"/>
<path d="M3841 1578 c-5 -14 -5 -24 1 -27 12 -4 28 17 28 37 0 20 -20 13 -29
-10z"/>
<path d="M3870 1560 c-12 -22 -1 -27 18 -8 9 9 12 9 12 -2 0 -7 2 -11 5 -8 8
7 -5 38 -16 38 -4 0 -13 -9 -19 -20z"/>
<path d="M3920 1542 c0 -14 -8 -17 -33 -17 -18 1 -39 5 -45 9 -7 4 -12 4 -13
-1 0 -4 -2 -15 -4 -23 -17 -80 -11 -99 25 -80 18 9 21 19 18 46 -5 39 -2 40
32 14 34 -26 48 -25 52 5 l3 24 50 -31 c59 -37 43 -13 -25 37 -55 40 -60 42
-60 17z"/>
<path d="M1435 1540 c3 -5 8 -10 11 -10 2 0 4 5 4 10 0 6 -5 10 -11 10 -5 0
-7 -4 -4 -10z"/>
<path d="M1110 1173 c0 -6 -20 -16 -45 -22 -65 -16 -54 -39 12 -25 23 4 50 41
39 52 -3 3 -6 1 -6 -5z"/>
<path d="M3867 1174 c-19 -20 -6 -35 27 -33 19 2 38 0 43 -4 10 -11 -17 -27
-44 -27 -16 0 -23 -6 -23 -19 0 -15 8 -18 50 -17 54 1 55 3 37 61 -11 36 -16
40 -48 43 -19 1 -38 -1 -42 -4z"/>
<path d="M3980 1161 c0 -16 6 -21 26 -21 33 0 30 33 -4 38 -17 3 -22 -2 -22
-17z"/>
<path d="M967 997 c-4 -10 -7 -26 -7 -35 1 -15 2 -15 11 1 6 10 9 25 7 35 -3
16 -4 15 -11 -1z"/>
<path d="M1083 933 c-22 -8 -14 -23 12 -23 16 0 25 6 25 15 0 15 -14 18 -37 8z"/>
<path d="M845 576 c-18 -43 -19 -66 -2 -66 8 0 7 -3 -3 -10 -12 -7 -10 -18 15
-69 31 -66 40 -73 50 -40 4 11 25 46 46 77 21 30 39 61 39 67 0 16 -67 62
-103 70 -24 6 -29 3 -42 -29z"/>
<path d="M863 165 c-9 -29 -9 -35 3 -35 9 0 14 12 14 35 0 19 -1 35 -3 35 -2
0 -8 -16 -14 -35z"/>
</g>
</svg>
